<?xml version="1.0" standalone="no"?>
<!DOCTYPE svg PUBLIC "-//W3C//DTD SVG 20010904//EN"
 "http://www.w3.org/TR/2001/REC-SVG-20010904/DTD/svg10.dtd">
<svg version="1.0" xmlns="http://www.w3.org/2000/svg"
 width="552.000000pt" height="552.000000pt" viewBox="0 0 552.000000 552.000000"
 preserveAspectRatio="xMidYMid meet">
<metadata>
Created by potrace 1.10, written by Peter Selinger 2001-2011
</metadata>
<g transform="translate(0.000000,552.000000) scale(0.100000,-0.100000)"
fill="#000000" stroke="none">
<path d="M2855 3836 c-14 -10 -20 -26 -20 -54 0 -74 -7 -72 310 -72 257 0 287
-2 341 -20 64 -22 103 -54 142 -115 23 -36 26 -52 30 -170 4 -114 7 -133 25
-152 27 -30 55 -29 89 4 l28 27 0 251 0 251 -29 32 -30 32 -434 0 c-356 0
-437 -3 -452 -14z"/>
<path d="M1790 3499 c-14 -5 -34 -22 -43 -38 -15 -26 -17 -79 -17 -581 0 -386
3 -558 11 -573 32 -63 91 -72 173 -27 83 44 100 54 116 66 8 6 45 28 82 47 91
49 111 60 128 73 8 6 44 27 80 46 36 20 81 45 100 57 19 11 44 25 56 30 11 5
51 28 88 50 36 23 68 41 71 41 2 0 47 25 99 56 108 63 136 92 136 140 0 37
-35 72 -117 114 -26 14 -55 30 -63 36 -8 7 -42 26 -75 44 -33 18 -78 43 -100
56 -22 13 -47 27 -55 31 -12 5 -109 61 -180 103 -8 5 -37 21 -65 36 -27 14
-62 35 -76 45 -15 10 -37 23 -50 29 -13 5 -31 14 -39 20 -144 92 -212 118
-260 99z"/>
<path d="M3688 2500 c-24 -18 -26 -25 -30 -148 -5 -140 -14 -166 -74 -226 -71
-71 -67 -70 -406 -76 -343 -6 -342 -5 -342 -74 0 -69 -22 -66 468 -66 242 0
446 4 452 8 5 4 18 18 27 32 15 21 17 56 17 273 l0 248 -25 24 c-29 30 -54 32
-87 5z"/>
</g>
</svg>
